<svg fill="#ffffff" width="20px" height="20px" viewBox="0 0 59 59" version="1.1" preserveAspectRatio="xMidYMid meet" xmlns="http://www.w3.org/2000/svg" xmlns:xlink="http://www.w3.org/1999/xlink">
  <g id="SVGRepo_bgCarrier" stroke-width="0"></g>
  <g id="SVGRepo_tracerCarrier" stroke-linecap="round" stroke-linejoin="round"></g>
  <g id="SVGRepo_iconCarrier">
    <rect x="6.923" y="22" width="20" height="20" fill="#ffffff" />
    <rect x="26" y="26" width="20" height="20" fill="#ffffff" />
    <path d="M13,9.92,17,6V19a1,1,0,1,0,2,0V6l4,3.95A1,1,0,1,0,24.38,8.5L18,2.16,11.61,8.5A1,1,0,0,0,13,9.92Z" fill="#ffffff" />
    <path d="M30.84,13.37A1.94,1.94,0,0,0,28.93,12H21v2h7.95C30,16.94,31.72,21.65,32,22.48V30H4V22.48C4.28,21.65,7.05,14,7.05,14H15V12H7.07a1.92,1.92,0,0,0-1.9,1.32C2,22,2,22.1,2,22.33V30a2,2,0,0,0,2,2H32a2,2,0,0,0,2-2V22.33C34,22.1,34,22,30.84,13.37Z" fill="#ffffff" />
    <rect x="0" y="0" width="36" height="36" fill-opacity="0" />
  </g>
</svg>
